<svg xmlns="http://www.w3.org/2000/svg" viewBox="0 0 217.855 217.855" ><path d="M215.658 53.55L164.305 2.196a7.5 7.5 0 0 0-10.606 0L3.809 152.086c-1.35 1.352-2.135 3.166-2.193 5.075L.005 210.127c-.063 2.067.731 4.069 2.193 5.532a7.5 7.5 0 0 0 5.303 2.196l.229-.004 52.964-1.613a7.5 7.5 0 0 0 5.075-2.192l149.89-149.889c2.928-2.929 2.928-7.678-.001-10.607zM57.264 201.336l-42.024 1.28 1.279-42.026 91.124-91.125 40.75 40.743-91.129 91.128zM159 99.602L118.249 58.86l40.752-40.753 40.746 40.747L159 99.602z" fill="#fff"/></svg>