<svg xmlns="http://www.w3.org/2000/svg" width="30" height="30" fill="none" ><path d="M25.019 20.04V16.06l-.024-.364c-.115-1.719-.638-3.33-1.476-4.728m-4.91 9.851a7.23 7.23 0 0 1 0-2.698c.272-1.432 1.308-2.585 2.68-2.982l.291-.084a3.34 3.34 0 0 1 .93-.132c1.386 0 2.51 1.15 2.51 2.568v3.959c0 1.418-1.124 2.568-2.51 2.568a3.34 3.34 0 0 1-.93-.132l-.291-.084c-1.372-.397-2.408-1.551-2.68-2.982z" stroke="#fff" stroke-width="1.5" stroke-linecap="round"/><path d="M4.269 20.04a.75.75 0 1 0 1.5 0h-1.5zm.75-3.979l-.748-.05-.002.025v.025h.75zm.024-.364l.748.05-.748-.05zm8.142-9.491l.151.735-.151-.735zm3.668 0l-.151.735.151-.735zM8.749 15.14l.209-.72h0l-.209.72zm-.291-.084l-.209.72h0l.209-.72zm-3.439 2.436h.75 0-.75zm0 3.959h.75 0-.75zm1.021 2.068l-.452.599.201.151h.251v-.75zM21.289 8.354l.53-.53-.023-.023-.025-.021-.482.575zm4.261-2.805a.75.75 0 0 0-1.061-1.061l1.061 1.061zM4.488 24.489a.75.75 0 0 0 1.061 1.061l-1.061-1.061zM21.486 8.552l.53.53-.53-.53zm-10.177 9.1l.714-.229-.714.229zM5.769 20.04V16.06h-1.5v3.979h1.5zm-.002-3.929l.024-.364-1.497-.1-.024.364 1.497.1zm7.569-9.17c1.111-.229 2.255-.229 3.366 0l.302-1.469a9.84 9.84 0 0 0-3.971 0l.302 1.469zm-7.544 8.807c.292-4.353 3.391-7.952 7.544-8.807l-.302-1.469c-4.834.995-8.403 5.17-8.739 10.175l1.497.1zm3.166-1.327l-.291-.084-.417 1.441.291.084.417-1.441zm-.291-.084c-.37-.107-.753-.162-1.138-.162v1.5a2.59 2.59 0 0 1 .721.102l.417-1.441zm-1.138-.162c-1.816 0-3.26 1.502-3.26 3.318h1.5c0-1.02.804-1.818 1.76-1.818v-1.5zM8.54 15.86c.971.281 1.74 1.041 2.055 2.021l1.428-.459c-.463-1.441-1.601-2.578-3.066-3.003L8.54 15.86zm-4.272 1.631v3.959h1.5v-3.959h-1.5zm2.223 5.429c-.437-.329-.723-.862-.723-1.469h-1.5c0 1.089.517 2.061 1.32 2.667l.904-1.197zM21.77 7.779a10.8 10.8 0 0 0-4.766-2.308l-.302 1.469a9.3 9.3 0 0 1 4.105 1.989l.963-1.15zM10.899 18.078l-4.91 4.91 1.061 1.061 4.91-4.91-1.061-1.061zm-4.91 4.91l-1.5 1.5 1.061 1.061 1.5-1.5-1.061-1.061zm.052 1.28h.478v-1.5H6.04v1.5zm18.448-19.78l-3.533 3.533 1.061 1.061 3.533-3.533-1.061-1.061zm-3.533 3.533L10.899 18.078l1.061 1.061L22.016 9.082l-1.061-1.061zm-.198.863l.198.197 1.061-1.061-.197-.197-1.061 1.061zm-10.163 8.997c.063.196.084.428.084.727h1.5c0-.348-.021-.766-.156-1.186l-1.428.459z" fill="#fff"/></svg>