<svg xmlns="http://www.w3.org/2000/svg" width="56.103" height="40.792" viewBox="0 0 14.844 10.793" ><style><![CDATA[.B{stroke-width:.3}.C{stroke-linejoin:round}.D{stroke-linecap:round}]]></style><g stroke="#000" class="B C"><g fill="none"><path d="M1.151 1.152h6.043l1.164 1.478v7.012H1.151z" paint-order="stroke markers fill"/><g class="D"><path d="M7.194 1.152c-.072.442.085.857.091 1.361.55-.428.621-.267.946-.045m-7.08 6.575L4.39 3.848l3.54 5.793" paint-order="stroke markers fill"/><path d="M5.119 5.111l.45-.698 2.789 4.314" paint-order="stroke markers fill"/></g></g><path d="M4.382 4.165l-.176 1.223.164-.134.322.38.228-.474.468.415m.391-.724l.17 1.181.199-.31.389.235" paint-order="stroke markers fill" class="D"/><circle cx="6.356" cy="3.155" r=".637" paint-order="stroke markers fill"/><path d="M13.693 4.767l-1.91-1.968-1.91 1.968 1.075.005v1.202H9.146v1.621h2.745c.55 0 .733-.329.733-.76v-.86-1.202z" fill="none" paint-order="stroke markers fill"/></g></svg>