<svg xmlns="http://www.w3.org/2000/svg" width="56.103" height="40.792" viewBox="0 0 14.844 10.793" ><g fill="none" stroke="#56a"><g stroke-width=".3" stroke-linejoin="round"><path d="M1.151 1.152h6.043l1.164 1.478v7.012H1.151z" paint-order="stroke markers fill"/><path d="M7.194 1.152c-.072.442.085.857.091 1.361.55-.428.621-.267.946-.045" stroke-linecap="round" paint-order="stroke markers fill"/><path d="M13.693 4.767l-1.91-1.968-1.91 1.968 1.075.005v1.202H9.146v1.621h2.745c.55 0 .733-.329.733-.76v-.86-1.202z" paint-order="stroke markers fill"/></g><path d="M7.714 6.152c0 .944-1.238 1.709-2.766 1.709s-2.766-.765-2.766-1.709c0-.351.171-.677.464-.948.151-.14.104-1.233.313-1.34.184-.094.62.794.84.732a4.24 4.24 0 0 1 1.148-.154c.4 0 .78.053 1.123.147.239.066.625-.899.822-.796.19.099.193 1.263.334 1.39.307.275.486.609.486.968z" stroke-width=".25" stroke-linejoin="round" paint-order="stroke markers fill"/></g><text xml:space="preserve" x="144.862" y="-77.554" transform="matrix(0 1 -1 0 -73.475 -138.807)" font-size="2.21" font-family="sans-serif" letter-spacing="0" word-spacing="0" fill="#56a"><tspan x="144.862" y="-77.554" font-weight="normal" font-family="Comic Sans MS" vector-effect="none">3</tspan></text><path d="M6.56 5.578c-.187-.456-.386-.444-.62-.21m-2.646.21c.187-.456.386-.444.62-.21m-.535 1.075L2.373 6.08m.982.714l-1.041.012m1.065.35l-.795.362m3.964-1.075l1.006-.362m-.983.713l1.041.012m-1.064.35l.795.362" paint-order="stroke markers fill" fill="none" stroke="#56a" stroke-linejoin="round" stroke-linecap="round" stroke-width=".25"/></svg>