<svg xmlns="http://www.w3.org/2000/svg" width="800" height="800" viewBox="0 0 24 24" fill="none" ><path fill="none" d="M0 0h24v24H0z"/><g fill-rule="evenodd" fill="#fff"><path d="M8 12a4 4 0 1 1 8 0 4 4 0 1 1-8 0zm4-10a1 1 0 0 1 1 1v2a1 1 0 1 1-2 0V3a1 1 0 0 1 1-1zm7.707 2.293a1 1 0 0 1 0 1.414l-2 2a1 1 0 0 1-1.414-1.414l2-2a1 1 0 0 1 1.414 0zM18 12a1 1 0 0 1 1-1h2a1 1 0 1 1 0 2h-2a1 1 0 0 1-1-1zm-1.707 4.293a1 1 0 0 1 1.414 0l2 2a1 1 0 0 1-1.414 1.414l-2-2a1 1 0 0 1 0-1.414zM12 18a1 1 0 0 1 1 1v2a1 1 0 1 1-2 0v-2a1 1 0 0 1 1-1zm-4.293-1.707a1 1 0 0 1 0 1.414l-2 2a1 1 0 0 1-1.414-1.414l2-2a1 1 0 0 1 1.414 0zM2 12a1 1 0 0 1 1-1h2a1 1 0 1 1 0 2H3a1 1 0 0 1-1-1z"/><path d="M4.293 4.293a1 1 0 0 1 1.414 0l2 2a1 1 0 1 1-1.414 1.414l-2-2a1 1 0 0 1 0-1.414z"/></g></svg>