<svg xmlns="http://www.w3.org/2000/svg" width="107.637" height="185.163" viewBox="0 0 28.479 48.991" stroke-width=".265" ><path d="M12.383 30.355c5.398-.141 8.638-2.281 10.213-3.777a10.22 10.22 0 0 0 2.695-4.212c.447-1.338.733-3.099.48-5.31-.189-1.668-.647-3.315-1.509-4.702-.292-.47-.628-.907-1.011-1.302a6.37 6.37 0 0 0-1.698-1.248c-1.043-.53-2.247-.801-3.577-.877-1.338-.076-2.858.042-4.553.344a4.57 4.57 0 0 1-4.567-4.569A4.57 4.57 0 0 1 13.423.133c2.448.302 4.701.929 6.681 1.875 1.986.949 3.667 2.203 4.984 3.733a13.33 13.33 0 0 1 1.896 2.884c.373.767.649 1.535.85 2.284.581 2.158.589 4.307.406 6.149-.252 2.56-1.017 4.482-1.76 5.836a13.95 13.95 0 0 1-3.475 4.154c-1.786 1.439-5.214 3.45-10.622 3.309z" fill="#8cd0e5" stroke="#8cd0e5"/><path d="M16.096 18.636c-5.398.141-8.638 2.281-10.213 3.777a10.22 10.22 0 0 0-2.695 4.212c-.447 1.338-.733 3.099-.48 5.31.189 1.668.647 3.315 1.509 4.702.292.47.628.907 1.011 1.302a6.37 6.37 0 0 0 1.698 1.248c1.043.53 2.247.801 3.577.877 1.338.076 2.858-.042 4.553-.344a4.57 4.57 0 0 1 4.567 4.569 4.57 4.57 0 0 1-4.567 4.569c-2.448-.302-4.701-.929-6.681-1.875-1.986-.949-3.667-2.203-4.984-3.733a13.33 13.33 0 0 1-1.896-2.884c-.373-.767-.649-1.535-.85-2.284-.581-2.158-.589-4.307-.406-6.149.252-2.56 1.017-4.482 1.76-5.836a13.95 13.95 0 0 1 3.475-4.154c1.786-1.439 5.214-3.45 10.622-3.309z" fill="#376888" stroke="#376888"/></svg>