<svg xmlns="http://www.w3.org/2000/svg" xmlns:xlink="http://www.w3.org/1999/xlink" preserveAspectRatio="xMidYMid meet" viewBox="193.313 137.72 218.313 206.63" width="214.31" height="202.63" ><defs><path d="M398.63 158.06a10 10 0 0 1 10 10v154.83c0 5.52-4.48 10-10 10H204.31c-5.52 0-10-4.48-10-10V168.06a10 10 0 0 1 10-10h194.32z" id="A"/><path d="M343.01 165.31c4.03 0 7.31 3.27 7.31 7.31v55.47c0 4.04-3.28 7.31-7.31 7.31h-86.09a7.31 7.31 0 0 1-7.31-7.31v-55.47a7.31 7.31 0 0 1 7.31-7.31h86.09z" id="B"/><path d="M341.56 254.74c5.67 0 10.26 4.6 10.26 10.27v41.5c0 5.67-4.59 10.27-10.26 10.27h-80.18c-5.67 0-10.27-4.6-10.27-10.27v-41.5c0-5.67 4.6-10.27 10.27-10.27h80.18z" id="C"/><path d="M227.01 143.96c5.53 0 10 4.47 10 10v8.2a10 10 0 0 1-10 10h-11.42c-5.52 0-10-4.48-10-10v-8.2a10 10 0 0 1 10-10h11.42z" id="D"/><path d="M227.01 178.2a10 10 0 0 1 10 10v8.2a10 10 0 0 1-10 10h-11.42c-5.52 0-10-4.48-10-10v-8.2c0-5.52 4.48-10 10-10h11.42z" id="E"/><path d="M227.01 212.84a10 10 0 0 1 10 10v8.2c0 5.53-4.47 10-10 10h-11.42a10 10 0 0 1-10-10v-8.2c0-5.52 4.48-10 10-10h11.42z" id="F"/><path d="M227.01 247.09c5.53 0 10 4.47 10 10v8.19c0 5.53-4.47 10-10 10h-11.42a10 10 0 0 1-10-10v-8.19a10 10 0 0 1 10-10h11.42z" id="G"/><path d="M227.01 280.45a10 10 0 0 1 10 10v8.2a10 10 0 0 1-10 10h-11.42c-5.52 0-10-4.48-10-10v-8.2c0-5.52 4.48-10 10-10h11.42z" id="H"/><path d="M384.45 138.72a10 10 0 0 1 10 10v8.2a10 10 0 0 1-10 10h-11.42c-5.52 0-10-4.48-10-10v-8.2c0-5.52 4.48-10 10-10h11.42z" id="I"/><path d="M384.45 172.16c5.53 0 10 4.47 10 10v8.2a10 10 0 0 1-10 10h-11.42c-5.52 0-10-4.48-10-10v-8.2a10 10 0 0 1 10-10h11.42z" id="J"/><path d="M384.45 206.4a10 10 0 0 1 10 10v8.2a10 10 0 0 1-10 10h-11.42c-5.52 0-10-4.48-10-10v-8.2c0-5.52 4.48-10 10-10h11.42z" id="K"/><path d="M384.45 238.63c5.53 0 10 4.47 10 10v8.19c0 5.53-4.47 10-10 10h-11.42a10 10 0 0 1-10-10v-8.19a10 10 0 0 1 10-10h11.42z" id="L"/><path d="M384.45 275.28a10 10 0 0 1 10 10v8.2c0 5.53-4.47 10-10 10h-11.42a10 10 0 0 1-10-10v-8.2c0-5.52 4.48-10 10-10h11.42z" id="M"/><path d="M384.45 310.73a10 10 0 0 1 10 10v8.2c0 5.53-4.47 10-10 10h-11.42a10 10 0 0 1-10-10v-8.2c0-5.52 4.48-10 10-10h11.42z" id="N"/><path d="M227.01 313.15a10 10 0 0 1 10 10v8.2a10 10 0 0 1-10 10h-11.42c-5.52 0-10-4.48-10-10v-8.2c0-5.52 4.48-10 10-10h11.42z" id="O"/></defs><use xlink:href="#A"/><g fill="#fff"><use xlink:href="#B"/><use xlink:href="#C"/><use xlink:href="#D"/><use xlink:href="#E"/><use xlink:href="#F"/><use xlink:href="#G"/><use xlink:href="#H"/><use xlink:href="#I"/><use xlink:href="#J"/><use xlink:href="#K"/><use xlink:href="#L"/><use xlink:href="#M"/><use xlink:href="#N"/><use xlink:href="#O"/></g></svg>