<svg xmlns="http://www.w3.org/2000/svg" xmlns:xlink="http://www.w3.org/1999/xlink" width="25" height="25">
    <path transform="rotate(45 32.41 -34.026)" d="M48.724 3.503c-1.296 0-2.339 1.043-2.339 2.339v14.219c0 1.296 1.043 2.338 2.339 2.338h5.098c1.296 0 2.339-1.043 2.339-2.338V5.842c0-1.296-1.043-2.339-2.339-2.339zm2.549 2.011c.775 0 1.519.308 2.067.856s.856 1.292.856 2.067-.308 1.519-.856 2.067-1.292.856-2.067.856-1.519-.308-2.067-.856-.856-1.292-.856-2.067.308-1.519.856-2.067 1.292-.856 2.067-.856zm-1.801 7.039c.211 0 .413.084.562.233s.233.351.233.562c0 .439-.356.795-.795.795s-.795-.356-.795-.795c0-.211.084-.413.233-.562s.351-.233.562-.233zm3.601 0c.211 0 .413.084.562.233s.233.351.233.562c0 .439-.356.795-.795.795s-.795-.356-.795-.795.356-.795.795-.795zm-3.601 3.027c.211 0 .413.084.562.233s.233.351.233.562-.084.413-.233.562-.351.233-.562.233-.413-.084-.562-.233-.233-.351-.233-.562.084-.413.233-.562.351-.233.562-.233zm3.601 0c.211 0 .413.084.562.233s.233.351.233.562-.084.413-.233.562-.351.233-.562.233c-.439 0-.795-.356-.795-.795s.356-.795.795-.795zm-3.601 3.028c.439 0 .795.356.795.795 0 .211-.084.413-.233.562s-.351.233-.562.233-.413-.084-.562-.233-.233-.351-.233-.562c0-.439.356-.795.795-.795zm3.601 0c.439 0 .795.356.795.795 0 .211-.084.413-.233.562s-.351.233-.562.233c-.439 0-.795-.356-.795-.795s.356-.795.795-.795z" fill="#fff"/>
</svg>