<svg xmlns="http://www.w3.org/2000/svg" width="21" height="15" stroke="none" stroke-linecap="round" stroke-linejoin="round" fill="#fff" fill-rule="nonzero"><path d="M14.253 7.629V6.311c0-.741-.445-.944-1.887-1.463.609-1.389.768-1.848.248-2.362l-.951-.928c-.185-.182-.451-.29-.714-.29-.177 0-.36 0-1.671.584C8.704.436 8.488 0 7.771 0H6.426c-.708 0-.921.394-1.476 1.861-1.333-.553-1.52-.553-1.687-.553-.263 0-.529.108-.712.288l-.953.932c-.532.523-.349 1.013.277 2.345C.406 5.445 0 5.643 0 6.365v1.319c0 .741.445.945 1.886 1.464-.608 1.387-.765 1.846-.248 2.359l.948.927c.184.184.453.294.717.294.176 0 .359 0 1.671-.585.575 1.416.79 1.853 1.508 1.853h1.346c.707 0 .921-.395 1.477-1.863 1.334.556 1.52.556 1.686.556.262 0 .528-.108.712-.288l.959-.938c.526-.523.344-1.013-.282-2.34 1.431-.559 1.873-.773 1.873-1.494zm-3.305 3.89c-.127-.034-.485-.152-1.441-.556l-.22-.093-.878.355-.09.237-.568 1.375-1.196-.001c-.163-.274-.481-1.062-.61-1.381l-.092-.227-.878-.354-.226.102-1.403.583-.842-.824c.085-.312.425-1.084.563-1.396l.101-.228-.364-.862-.239-.086-1.407-.556V6.441c.279-.157 1.058-.459 1.414-.597l.229-.089.364-.863-.111-.233-.589-1.361.84-.822c.127.034.486.15 1.444.554l.22.094.876-.355.089-.238.567-1.375h1.196c.163.275.481 1.063.61 1.382l.092.227.877.355.227-.103 1.403-.583.843.824c-.085.311-.426 1.083-.563 1.396l-.101.229.365.864.239.085 1.406.555-.001 1.163c-.283.162-1.088.474-1.414.601l-.229.089-.362.864.11.232.59 1.359-.841.824zM7.127 4.914C5.954 4.914 5 5.849 5 6.998s.954 2.085 2.127 2.085 2.127-.936 2.127-2.085S8.3 4.914 7.127 4.914zm0 3.012c-.535 0-.971-.417-.971-.928s.436-.927.971-.927.97.416.97.927-.435.928-.97.928zm12.507 1.978c.279-.636.352-.846.114-1.081l-.437-.425c-.084-.084-.206-.133-.326-.133-.081 0-.164 0-.765.268-.263-.648-.361-.848-.689-.848h-.615c-.324 0-.422.181-.676.852-.609-.253-.695-.253-.771-.253-.12 0-.242.05-.326.132l-.437.427c-.243.239-.159.464.127 1.073-.673.262-.857.353-.857.683v.604c0 .339.203.433.863.67-.278.635-.351.845-.114 1.08l.434.424c.085.084.208.134.329.134.08 0 .164 0 .765-.268.263.648.361.848.689.848h.616c.323 0 .421-.18.676-.852.61.254.695.254.771.254.12 0 .242-.05.326-.132l.438-.43c.241-.239.157-.463-.129-1.07.655-.256.857-.354.857-.684v-.604c0-.339-.203-.432-.863-.669zm.334 1.237c-.129.074-.498.217-.647.274l-.104.041-.166.395.051.107.27.622-.385.376c-.059-.016-.223-.069-.66-.254l-.101-.043-.401.163-.041.108-.26.629h-.548c-.074-.126-.221-.486-.279-.632l-.042-.104-.401-.163-.104.047-.643.267-.385-.378c.039-.142.194-.495.257-.638l.046-.105-.166-.394-.109-.04-.644-.254v-.534c.128-.071.484-.21.646-.273l.105-.04.166-.396-.05-.106-.27-.622.385-.376c.058.015.222.068.66.254l.101.043.401-.162.04-.109.26-.629h.548c.074.126.22.487.279.633l.042.104.401.163.104-.047.643-.267.386.377c-.04.142-.195.495-.259.639l-.046.104.167.396.109.039.644.254v.531zm-2.732-1.207c-.536 0-.973.428-.973.953s.437.954.973.954.974-.428.974-.954-.437-.953-.974-.953zm0 1.378c-.245 0-.444-.19-.444-.425s.199-.424.444-.424.444.19.444.424-.199.425-.444.425z"/></svg>