<svg xmlns="http://www.w3.org/2000/svg" width="24" height="24" fill="#fff" ><path d="M18.707 6.707a1 1 0 0 0-1.414-1.414l-14 14a1 1 0 0 0 1.414 1.414l3.702-3.702a5 5 0 0 0 1.98 1.316c.239.086.493.15 1.002.277l.613.153c.34.085.51.127.644.086a.5.5 0 0 0 .278-.218c.073-.12.073-.295.073-.646v-5.56l5.707-5.707zM13 6.026v1.56l-7.237 7.238-1.567-.224a1.48 1.48 0 0 1-1.057-.702 3.69 3.69 0 0 1 0-3.796c.229-.381.617-.639 1.057-.701l2.331-.333a1.07 1.07 0 0 0 .739-.466l.367-.551.598-.85a5 5 0 0 1 2.159-1.522c.239-.086.493-.15 1.002-.277l.613-.153c.34-.085.51-.128.644-.086a.5.5 0 0 1 .278.217c.073.12.073.295.073.646z"/></svg>