<svg xmlns="http://www.w3.org/2000/svg" width="24" height="24" fill="#fff" ><path d="M3.139 13.898a3.69 3.69 0 0 1 0-3.796c.229-.381.617-.639 1.057-.702l2.331-.333a1.07 1.07 0 0 0 .739-.466l.367-.551.598-.85a5 5 0 0 1 2.159-1.522c.239-.086.493-.15 1.002-.277l.613-.153c.34-.085.51-.128.644-.086a.5.5 0 0 1 .278.217c.073.12.073.295.073.646v11.948c0 .351 0 .526-.073.645a.5.5 0 0 1-.278.218c-.134.042-.304-.001-.644-.086l-.613-.153-1.002-.277a5 5 0 0 1-2.159-1.522c-.162-.196-.307-.414-.598-.85l-.367-.551a1.07 1.07 0 0 0-.739-.466l-2.331-.333c-.44-.063-.828-.32-1.057-.701z"/><path d="M15.005 7.934a.75.75 0 0 1 1.061 0 5.75 5.75 0 0 1 .032 8.1.75.75 0 1 1-1.069-1.052 4.25 4.25 0 0 0-.024-5.987.75.75 0 0 1 0-1.061zm3.122-2.121a.75.75 0 0 1 1.061 0 8.75 8.75 0 0 1 .049 12.325.75.75 0 1 1-1.069-1.052 7.25 7.25 0 0 0-.04-10.212.75.75 0 0 1 0-1.061z" fill-rule="evenodd"/></svg>