<svg width="30" height="30" fill="none" xmlns="http://www.w3.org/2000/svg" style=""><rect id="backgroundrect" width="100%" height="100%" x="0" y="0" fill="none" stroke="none" style="" class=""/>


<g class="currentLayer" style=""><title>Layer 1</title><path d="M25.01886773109436,20.03966773109436 V16.060467731094363 L24.99446773109436,15.696767731094361 C24.87926773109436,13.978167731094361 24.356667731094362,12.36638773109436 23.51876773109436,10.96906773109436 M18.60846773109436,20.820067731094362 C18.439167731094358,19.92916773109436 18.439167731094358,19.01326773109436 18.60846773109436,18.12236773109436 C18.88046773109436,16.69046773109436 19.91696773109436,15.53716773109436 21.28866773109436,15.13986773109436 L21.57956773109436,15.05556773109436 C21.88206773109436,14.96796773109436 22.19486773109436,14.92356773109436 22.50916773109436,14.92356773109436 C23.89526773109436,14.92356773109436 25.01886773109436,16.07326773109436 25.01886773109436,17.49156773109436 V21.45086773109436 C25.01886773109436,22.86916773109436 23.89526773109436,24.01886773109436 22.50916773109436,24.01886773109436 C22.19486773109436,24.01886773109436 21.88206773109436,23.97446773109436 21.57956773109436,23.88686773109436 L21.28866773109436,23.80256773109436 C19.91696773109436,23.405367731094362 18.88046773109436,22.25196773109436 18.60846773109436,20.820067731094362 z" stroke="#ffffff" stroke-width="1.5" stroke-linecap="round" id="svg_1" class="" fill="none" stroke-opacity="1"/><path d="M4.268837731094361,20.03966773109436 C4.268837731094361,20.45386773109436 4.604627731094361,20.78966773109436 5.018837731094361,20.78966773109436 C5.43305773109436,20.78966773109436 5.768837731094361,20.45386773109436 5.768837731094361,20.03966773109436 H4.268837731094361 zM5.018837731094361,16.060467731094363 L4.27051773109436,16.01026773109436 L4.268837731094361,16.03536773109436 V16.060467731094363 H5.018837731094361 zM5.0432177310943604,15.696867731094361 L5.79153773109436,15.74696773109436 L5.0432177310943604,15.696867731094361 zM13.184767731094361,6.20580773109436 L13.33596773109436,6.940407731094361 L13.184767731094361,6.20580773109436 zM16.85296773109436,6.20580773109436 L16.70176773109436,6.940407731094361 L16.85296773109436,6.20580773109436 zM8.749047731094361,15.13986773109436 L8.95768773109436,14.419467731094361 L8.95767773109436,14.419467731094361 L8.749047731094361,15.13986773109436 zM8.45808773109436,15.05556773109436 L8.24944773109436,15.77596773109436 H8.24944773109436 L8.45808773109436,15.05556773109436 zM5.01884773109436,17.49156773109436 H5.76884773109436 V17.49156773109436 L5.01884773109436,17.49156773109436 zM5.01884773109436,21.45096773109436 L5.76884773109436,21.45096773109436 V21.45096773109436 H5.01884773109436 zM6.04031773109436,23.51886773109436 L5.58850773109436,24.11756773109436 L5.7890877310943605,24.26896773109436 L6.0403777310943605,24.26886773109436 L6.04031773109436,23.51886773109436 zM21.28866773109436,8.35416773109436 L21.81896773109436,7.82383773109436 L21.795667731094362,7.80049773109436 L21.77036773109436,7.779297731094361 L21.28866773109436,8.35416773109436 zM25.54916773109436,5.5491977310943605 C25.84206773109436,5.25630773109436 25.84206773109436,4.781427731094361 25.54916773109436,4.48853773109436 C25.25626773109436,4.19564773109436 24.78136773109436,4.19564773109436 24.48846773109436,4.48853773109436 L25.54916773109436,5.5491977310943605 zM4.488477731094361,24.48856773109436 C4.19558773109436,24.78146773109436 4.19558773109436,25.25626773109436 4.488477731094361,25.54916773109436 C4.7813677310943605,25.84206773109436 5.25624773109436,25.84206773109436 5.54913773109436,25.54916773109436 L4.488477731094361,24.48856773109436 zM21.48606773109436,8.55160773109436 L22.01636773109436,9.08193773109436 L21.48606773109436,8.55160773109436 zM11.30942773109436,17.65166773109436 L12.02345773109436,17.422167731094362 L11.30942773109436,17.65166773109436 zM5.768837731094361,20.03966773109436 V16.060467731094363 H4.268837731094361 V20.03966773109436 H5.768837731094361 zM5.76715773109436,16.11066773109436 L5.79153773109436,15.74696773109436 L4.294897731094361,15.646667731094361 L4.27051773109436,16.01026773109436 L5.76715773109436,16.11066773109436 zM13.33596773109436,6.940407731094361 C14.44676773109436,6.7117377310943604 15.59086773109436,6.7117377310943604 16.70176773109436,6.940407731094361 L17.004167731094363,5.47120773109436 C15.693767731094361,5.20146773109436 14.34386773109436,5.20146773109436 13.03356773109436,5.47120773109436 L13.33596773109436,6.940407731094361 zM5.79153773109436,15.74696773109436 C6.0833577310943605,11.39349773109436 9.182497731094362,7.79537773109436 13.33596773109436,6.940407731094361 L13.03356773109436,5.47120773109436 C8.199117731094361,6.4663577310943605 4.63040773109436,10.64135773109436 4.294897731094361,15.646667731094361 L5.79153773109436,15.74696773109436 zM8.95767773109436,14.419467731094361 L8.66671773109436,14.33516773109436 L8.24944773109436,15.77596773109436 L8.54040773109436,15.86026773109436 L8.95767773109436,14.419467731094361 zM8.66672773109436,14.33516773109436 C8.29660773109436,14.22806773109436 7.913557731094361,14.17356773109436 7.528527731094361,14.17356773109436 V15.67356773109436 C7.772117731094361,15.67356773109436 8.01469773109436,15.70796773109436 8.24944773109436,15.77596773109436 L8.66672773109436,14.33516773109436 zM7.528527731094361,14.17356773109436 C5.712107731094361,14.17356773109436 4.268837731094361,15.675467731094361 4.26884773109436,17.49156773109436 L5.76884773109436,17.49156773109436 C5.768837731094361,16.47116773109436 6.572817731094361,15.67356773109436 7.528527731094361,15.67356773109436 V14.17356773109436 zM8.54040773109436,15.86026773109436 C9.51118773109436,16.14146773109436 10.28032773109436,16.900767731094362 10.59538773109436,17.881167731094358 L12.02345773109436,17.422167731094362 C11.560517731094361,15.98166773109436 10.42253773109436,14.84376773109436 8.95768773109436,14.419467731094361 L8.54040773109436,15.86026773109436 zM4.26884773109436,17.49156773109436 L4.26884773109436,21.45096773109436 H5.76884773109436 L5.76884773109436,17.49156773109436 H4.26884773109436 zM6.49212773109436,22.92026773109436 C6.05560773109436,22.59076773109436 5.768837731094361,22.05796773109436 5.76884773109436,21.45096773109436 L4.26884773109436,21.45096773109436 C4.268837731094361,22.54026773109436 4.785867731094361,23.51176773109436 5.58850773109436,24.11756773109436 L6.49212773109436,22.92026773109436 zM21.77036773109436,7.779297731094361 C20.42356773109436,6.650847731094361 18.80036773109436,5.840957731094361 17.004167731094363,5.47120773109436 L16.70176773109436,6.940407731094361 C18.24706773109436,7.25849773109436 19.644667731094362,7.95514773109436 20.80696773109436,8.929027731094362 L21.77036773109436,7.779297731094361 zM10.898917731094361,18.07806773109436 L5.988477731094361,22.98856773109436 L7.04913773109436,24.04916773109436 L11.95957773109436,19.13876773109436 L10.898917731094361,18.07806773109436 zM5.988477731094361,22.98856773109436 L4.488477731094361,24.48856773109436 L5.54913773109436,25.54916773109436 L7.04913773109436,24.04916773109436 L5.988477731094361,22.98856773109436 zM6.0403777310943605,24.26886773109436 L6.51886773109436,24.26886773109436 L6.5187477310943605,22.76886773109436 L6.040257731094361,22.76886773109436 L6.0403777310943605,24.26886773109436 zM24.48846773109436,4.48853773109436 L20.95576773109436,8.021277731094361 L22.01636773109436,9.08193773109436 L25.54916773109436,5.5491977310943605 L24.48846773109436,4.48853773109436 zM20.95576773109436,8.021277731094361 L10.898917731094361,18.07806773109436 L11.95957773109436,19.13876773109436 L22.01636773109436,9.08193773109436 L20.95576773109436,8.021277731094361 zM20.75826773109436,8.88449773109436 L20.95576773109436,9.08193773109436 L22.01636773109436,8.021277731094361 L21.81896773109436,7.82383773109436 L20.75826773109436,8.88449773109436 zM10.59538773109436,17.881167731094358 C10.65827773109436,18.07686773109436 10.67924773109436,18.309467731094358 10.67924773109436,18.60846773109436 H12.17924773109436 C12.17924773109436,18.26086773109436 12.15838773109436,17.84206773109436 12.02345773109436,17.422167731094362 L10.59538773109436,17.881167731094358 z" fill="#ffffff" id="svg_2" class="" fill-opacity="1"/></g></svg>