<?xml version="1.0" encoding="UTF-8" standalone="no"?>
<!DOCTYPE svg PUBLIC "-//W3C//DTD SVG 1.1//EN" "http://www.w3.org/Graphics/SVG/1.1/DTD/svg11.dtd">
<svg version="1.1" xmlns="http://www.w3.org/2000/svg" xmlns:xlink="http://www.w3.org/1999/xlink" preserveAspectRatio="xMidYMid meet" viewBox="193.3127962085308 137.72037914691944 218.3127962085308 206.6303317535546" width="214.31" height="202.63"><defs><path d="M398.63 158.06C404.15 158.06 408.63 162.53 408.63 168.06C408.63 201.02 408.63 289.92 408.63 322.89C408.63 328.41 404.15 332.89 398.63 332.89C357.76 332.89 245.18 332.89 204.31 332.89C198.79 332.89 194.31 328.41 194.31 322.89C194.31 289.92 194.31 201.02 194.31 168.06C194.31 162.53 198.79 158.06 204.31 158.06C245.18 158.06 357.76 158.06 398.63 158.06Z" id="am3OWMEPJ"></path><path d="M343.01 165.31C347.04 165.31 350.32 168.58 350.32 172.62C350.32 185.18 350.32 215.54 350.32 228.09C350.32 232.13 347.04 235.4 343.01 235.4C324.33 235.4 275.6 235.4 256.92 235.4C252.88 235.4 249.61 232.13 249.61 228.09C249.61 215.54 249.61 185.18 249.61 172.62C249.61 168.58 252.88 165.31 256.92 165.31C275.6 165.31 324.33 165.31 343.01 165.31Z" id="d36mNbQfXm"></path><path d="M341.56 254.74C347.23 254.74 351.82 259.34 351.82 265.01C351.82 275.36 351.82 296.16 351.82 306.51C351.82 312.18 347.23 316.78 341.56 316.78C323.47 316.78 279.47 316.78 261.38 316.78C255.71 316.78 251.11 312.18 251.11 306.51C251.11 296.16 251.11 275.36 251.11 265.01C251.11 259.34 255.71 254.74 261.38 254.74C279.47 254.74 323.47 254.74 341.56 254.74Z" id="a253iv9tRJ"></path><path d="M227.01 143.96C232.54 143.96 237.01 148.43 237.01 153.96C237.01 157.6 237.01 158.52 237.01 162.16C237.01 167.68 232.54 172.16 227.01 172.16C222.73 172.16 219.88 172.16 215.59 172.16C210.07 172.16 205.59 167.68 205.59 162.16C205.59 158.52 205.59 157.6 205.59 153.96C205.59 148.43 210.07 143.96 215.59 143.96C219.88 143.96 222.73 143.96 227.01 143.96Z" id="d3YyyaLcXf"></path><path d="M227.01 178.2C232.54 178.2 237.01 182.68 237.01 188.2C237.01 191.84 237.01 192.76 237.01 196.4C237.01 201.92 232.54 206.4 227.01 206.4C222.73 206.4 219.88 206.4 215.59 206.4C210.07 206.4 205.59 201.92 205.59 196.4C205.59 192.76 205.59 191.84 205.59 188.2C205.59 182.68 210.07 178.2 215.59 178.2C219.88 178.2 222.73 178.2 227.01 178.2Z" id="b2alcAwbR"></path><path d="M227.01 212.84C232.54 212.84 237.01 217.32 237.01 222.84C237.01 226.48 237.01 227.4 237.01 231.04C237.01 236.57 232.54 241.04 227.01 241.04C222.73 241.04 219.88 241.04 215.59 241.04C210.07 241.04 205.59 236.57 205.59 231.04C205.59 227.4 205.59 226.48 205.59 222.84C205.59 217.32 210.07 212.84 215.59 212.84C219.88 212.84 222.73 212.84 227.01 212.84Z" id="fWm4XKyD6"></path><path d="M227.01 247.09C232.54 247.09 237.01 251.56 237.01 257.09C237.01 260.73 237.01 261.64 237.01 265.28C237.01 270.81 232.54 275.28 227.01 275.28C222.73 275.28 219.88 275.28 215.59 275.28C210.07 275.28 205.59 270.81 205.59 265.28C205.59 261.64 205.59 260.73 205.59 257.09C205.59 251.56 210.07 247.09 215.59 247.09C219.88 247.09 222.73 247.09 227.01 247.09Z" id="f1noy9zyv"></path><path d="M227.01 280.45C232.54 280.45 237.01 284.93 237.01 290.45C237.01 294.09 237.01 295.01 237.01 298.65C237.01 304.17 232.54 308.65 227.01 308.65C222.73 308.65 219.88 308.65 215.59 308.65C210.07 308.65 205.59 304.17 205.59 298.65C205.59 295.01 205.59 294.09 205.59 290.45C205.59 284.93 210.07 280.45 215.59 280.45C219.88 280.45 222.73 280.45 227.01 280.45Z" id="b3RzIWvZv8"></path><path d="M384.45 138.72C389.98 138.72 394.45 143.2 394.45 148.72C394.45 152.36 394.45 153.28 394.45 156.92C394.45 162.44 389.98 166.92 384.45 166.92C380.17 166.92 377.32 166.92 373.03 166.92C367.51 166.92 363.03 162.44 363.03 156.92C363.03 153.28 363.03 152.36 363.03 148.72C363.03 143.2 367.51 138.72 373.03 138.72C377.32 138.72 380.17 138.72 384.45 138.72Z" id="aAvd0LFwB"></path><path d="M384.45 172.16C389.98 172.16 394.45 176.63 394.45 182.16C394.45 185.8 394.45 186.72 394.45 190.36C394.45 195.88 389.98 200.36 384.45 200.36C380.17 200.36 377.32 200.36 373.03 200.36C367.51 200.36 363.03 195.88 363.03 190.36C363.03 186.72 363.03 185.8 363.03 182.16C363.03 176.63 367.51 172.16 373.03 172.16C377.32 172.16 380.17 172.16 384.45 172.16Z" id="gq1A50oLt"></path><path d="M384.45 206.4C389.98 206.4 394.45 210.88 394.45 216.4C394.45 220.04 394.45 220.96 394.45 224.6C394.45 230.12 389.98 234.6 384.45 234.6C380.17 234.6 377.32 234.6 373.03 234.6C367.51 234.6 363.03 230.12 363.03 224.6C363.03 220.96 363.03 220.04 363.03 216.4C363.03 210.88 367.51 206.4 373.03 206.4C377.32 206.4 380.17 206.4 384.45 206.4Z" id="bjYU6gBEB"></path><path d="M384.45 238.63C389.98 238.63 394.45 243.1 394.45 248.63C394.45 252.27 394.45 253.18 394.45 256.82C394.45 262.35 389.98 266.82 384.45 266.82C380.17 266.82 377.32 266.82 373.03 266.82C367.51 266.82 363.03 262.35 363.03 256.82C363.03 253.18 363.03 252.27 363.03 248.63C363.03 243.1 367.51 238.63 373.03 238.63C377.32 238.63 380.17 238.63 384.45 238.63Z" id="f6Bi2pgin8"></path><path d="M384.45 275.28C389.98 275.28 394.45 279.76 394.45 285.28C394.45 288.92 394.45 289.84 394.45 293.48C394.45 299.01 389.98 303.48 384.45 303.48C380.17 303.48 377.32 303.48 373.03 303.48C367.51 303.48 363.03 299.01 363.03 293.48C363.03 289.84 363.03 288.92 363.03 285.28C363.03 279.76 367.51 275.28 373.03 275.28C377.32 275.28 380.17 275.28 384.45 275.28Z" id="bFEE2lCQJ"></path><path d="M384.45 310.73C389.98 310.73 394.45 315.21 394.45 320.73C394.45 324.37 394.45 325.29 394.45 328.93C394.45 334.46 389.98 338.93 384.45 338.93C380.17 338.93 377.32 338.93 373.03 338.93C367.51 338.93 363.03 334.46 363.03 328.93C363.03 325.29 363.03 324.37 363.03 320.73C363.03 315.21 367.51 310.73 373.03 310.73C377.32 310.73 380.17 310.73 384.45 310.73Z" id="aOpyopKW8"></path><path d="M227.01 313.15C232.54 313.15 237.01 317.63 237.01 323.15C237.01 326.79 237.01 327.71 237.01 331.35C237.01 336.87 232.54 341.35 227.01 341.35C222.73 341.35 219.88 341.35 215.59 341.35C210.07 341.35 205.59 336.87 205.59 331.35C205.59 327.71 205.59 326.79 205.59 323.15C205.59 317.63 210.07 313.15 215.59 313.15C219.88 313.15 222.73 313.15 227.01 313.15Z" id="f4gqdHuOP"></path></defs><g><g><use xlink:href="#am3OWMEPJ" opacity="1" fill="#000000" fill-opacity="1"></use></g><g><use xlink:href="#d36mNbQfXm" opacity="1" fill="#ffffff" fill-opacity="1"></use></g><g><use xlink:href="#a253iv9tRJ" opacity="1" fill="#ffffff" fill-opacity="1"></use></g><g><use xlink:href="#d3YyyaLcXf" opacity="1" fill="#ffffff" fill-opacity="1"></use></g><g><use xlink:href="#b2alcAwbR" opacity="1" fill="#ffffff" fill-opacity="1"></use></g><g><use xlink:href="#fWm4XKyD6" opacity="1" fill="#ffffff" fill-opacity="1"></use></g><g><use xlink:href="#f1noy9zyv" opacity="1" fill="#ffffff" fill-opacity="1"></use></g><g><use xlink:href="#b3RzIWvZv8" opacity="1" fill="#ffffff" fill-opacity="1"></use></g><g><use xlink:href="#aAvd0LFwB" opacity="1" fill="#ffffff" fill-opacity="1"></use></g><g><use xlink:href="#gq1A50oLt" opacity="1" fill="#ffffff" fill-opacity="1"></use></g><g><use xlink:href="#bjYU6gBEB" opacity="1" fill="#ffffff" fill-opacity="1"></use></g><g><use xlink:href="#f6Bi2pgin8" opacity="1" fill="#ffffff" fill-opacity="1"></use></g><g><use xlink:href="#bFEE2lCQJ" opacity="1" fill="#ffffff" fill-opacity="1"></use></g><g><use xlink:href="#aOpyopKW8" opacity="1" fill="#ffffff" fill-opacity="1"></use></g><g><use xlink:href="#f4gqdHuOP" opacity="1" fill="#ffffff" fill-opacity="1"></use></g></g></svg>