<svg xmlns="http://www.w3.org/2000/svg" xmlns:xlink="http://www.w3.org/1999/xlink" width="25" height="25" xmlns:v="https://vecta.io/nano">
   <defs>
      <linearGradient id="A" gradientUnits="userSpaceOnUse">
         <stop offset="0" stop-opacity="0"/>
         <stop offset=".38" stop-opacity=".016"/>
         <stop offset=".689" stop-opacity=".067"/>
         <stop offset="1" stop-opacity=".195"/>
      </linearGradient>
      <radialGradient id="B" cx="94.279" cy="97.784" fx="94.279" fy="97.784" r="12.528" gradientTransform="translate(-38.742794,-0.60780257)" gradientUnits="userSpaceOnUse">
         <stop offset="0" stop-color="#ff780a"/>
         <stop offset=".843" stop-color="#f46200"/>
         <stop offset="1" stop-color="#e35b00"/>
      </radialGradient>
      <filter id="C" x="-.009" width="1.018" y="-.005" height="1.009" color-interpolation-filters="sRGB">
         <feGaussianBlur stdDeviation=".036"/>
      </filter>
      <linearGradient id="D" x1="55.537" y1="109.704" x2="55.537" y2="84.648" gradientUnits="userSpaceOnUse">
         <stop offset="0" stop-opacity=".3"/>
         <stop offset=".488" stop-color="#d05300" stop-opacity=".039"/>
         <stop offset="1" stop-color="#e35b00" stop-opacity=".02"/>
      </linearGradient>
      <linearGradient xlink:href="#A" id="E" x1="55.67" y1="96.942" x2="55.67" y2="110.039"/>
      <linearGradient xlink:href="#A" id="F" x1="-56.255" y1="96.45" x2="-56.255" y2="109.546"/>
      <linearGradient xlink:href="#A" id="G" x1="112.059" y1=".258" x2="112.059" y2="13.354"/>
      <linearGradient xlink:href="#A" id="H" x1="96.818" y1="56.155" x2="96.818" y2="69.251"/>
      <linearGradient xlink:href="#A" id="I" x1="-.358" y1="111.691" x2="-.358" y2="124.788"/>
   </defs>
   <circle r="12.528" cy="12.53" cx="12.53" fill="#f90" paint-order="normal"/>
   <path transform="rotate(45 32.41 -34.026)" d="M48.724 3.503c-1.296 0-2.339 1.043-2.339 2.339v14.219c0 1.296 1.043 2.338 2.339 2.338h5.098c1.296 0 2.339-1.043 2.339-2.338V5.842c0-1.296-1.043-2.339-2.339-2.339zm2.549 2.011c.775 0 1.519.308 2.067.856s.856 1.292.856 2.067-.308 1.519-.856 2.067-1.292.856-2.067.856-1.519-.308-2.067-.856-.856-1.292-.856-2.067.308-1.519.856-2.067 1.292-.856 2.067-.856zm-1.801 7.039c.211 0 .413.084.562.233s.233.351.233.562c0 .439-.356.795-.795.795s-.795-.356-.795-.795c0-.211.084-.413.233-.562s.351-.233.562-.233zm3.601 0c.211 0 .413.084.562.233s.233.351.233.562c0 .439-.356.795-.795.795s-.795-.356-.795-.795.356-.795.795-.795zm-3.601 3.027c.211 0 .413.084.562.233s.233.351.233.562-.084.413-.233.562-.351.233-.562.233-.413-.084-.562-.233-.233-.351-.233-.562.084-.413.233-.562.351-.233.562-.233zm3.601 0c.211 0 .413.084.562.233s.233.351.233.562-.084.413-.233.562-.351.233-.562.233c-.439 0-.795-.356-.795-.795s.356-.795.795-.795zm-3.601 3.028c.439 0 .795.356.795.795 0 .211-.084.413-.233.562s-.351.233-.562.233-.413-.084-.562-.233-.233-.351-.233-.562c0-.439.356-.795.795-.795zm3.601 0c.439 0 .795.356.795.795 0 .211-.084.413-.233.562s-.351.233-.562.233c-.439 0-.795-.356-.795-.795s.356-.795.795-.795z" fill="#fff" paint-order="normal" filter="url(#C)"/>
   <circle cx="12.53" cy="12.53" r="12.528" fill="url(#D)" paint-order="normal"/>
   <circle r="12.528" cy="12.53" cx="12.53" fill="url(#E)" paint-order="normal"/>
   <circle cx="-99.395" cy="12.038" r="12.528" transform="rotate(300 -43.006 -84.646)" fill="url(#F)" paint-order="normal"/>
   <circle r="12.528" cy="-84.154" cx="68.919" transform="rotate(60 -43.006 -84.646)" fill="url(#G)" paint-order="normal"/>
   <circle transform="rotate(30 -43.006 -84.646)" cx="53.678" cy="-28.257" r="12.528" fill="url(#H)" paint-order="normal"/>
   <circle r="12.528" cy="27.279" cx="-43.498" transform="rotate(330 -43.006 -84.646)" fill="url(#I)" paint-order="normal"/>
</svg>